<?xml version="1.0" encoding="utf-8"?>
<!-- Generator: Adobe Illustrator 24.0.0, SVG Export Plug-In . SVG Version: 6.00 Build 0)  -->
<svg version="1.1" id="Layer_1" xmlns="http://www.w3.org/2000/svg" xmlns:xlink="http://www.w3.org/1999/xlink" x="0px" y="0px"
	 viewBox="0 0 169.7 21.5" style="enable-background:new 0 0 169.7 21.5;" xml:space="preserve">
<style type="text/css">
	.st0{fill:#F3D082;}
</style>
<path class="st0" d="M169,17.2L152.5,0.7c-0.9-0.9-2.6-0.9-3.5,0l-14.7,14.7L119.6,0.7c-1-1-2.6-1-3.5,0l-14.7,14.7L86.6,0.7
	c-0.9-0.9-2.6-0.9-3.5,0L68.4,15.4L53.7,0.7c-1-1-2.6-1-3.5,0L35.4,15.4L20.7,0.7c-0.9-0.9-2.6-0.9-3.5,0L0.7,17.2c-1,1-1,2.6,0,3.5
	c0.5,0.5,1.1,0.7,1.8,0.7s1.3-0.2,1.8-0.7L19,6l14.7,14.7c1,1,2.6,1,3.5,0L51.9,6l14.7,14.7c0.5,0.5,1.1,0.7,1.8,0.7
	s1.3-0.2,1.8-0.7L84.9,6l14.7,14.7c1,1,2.6,1,3.5,0L117.8,6l14.7,14.7c0.5,0.5,1.1,0.7,1.8,0.7s1.3-0.2,1.8-0.7L150.8,6l14.7,14.7
	c1,1,2.6,1,3.5,0C170,19.8,170,18.2,169,17.2z"/>
</svg>
