<?xml version="1.0" encoding="utf-8"?>
<!-- Generator: Adobe Illustrator 23.0.6, SVG Export Plug-In . SVG Version: 6.00 Build 0)  -->
<svg version="1.1" id="Layer_1" xmlns="http://www.w3.org/2000/svg" xmlns:xlink="http://www.w3.org/1999/xlink" x="0px" y="0px"
	 viewBox="0 0 416.25 474.77" style="enable-background:new 0 0 416.25 474.77;" xml:space="preserve">
<style type="text/css">
	.st0{fill:#FFFFFF;}
</style>
<g id="live_lingua_logo">
</g>
<g id="live_lingua_logo_copy">
</g>
<g id="live_lingua_logo_copy_3">
</g>
<g id="live_lingua_logo_copy_2">
	<g>
		<g>
			<g>
				<path class="st0" d="M161.41,215.62l-31.54-3.34c-5.21-0.55-7.87-6.54-4.79-10.78l18.66-25.65c3.08-4.24,9.6-3.55,11.73,1.24
					l12.88,28.98C170.47,210.87,166.62,216.17,161.41,215.62z"/>
				<path class="st0" d="M141.73,239.11l-15.95-9.09c-4.56-2.59-10.21,0.72-10.18,5.96l0.11,18.36c0.03,5.24,5.73,8.48,10.25,5.84
					l15.85-9.27C146.33,248.26,146.29,241.71,141.73,239.11z"/>
				<path class="st0" d="M208.85,167.75l-13.12-12.84c-3.75-3.67-10.06-1.9-11.36,3.17l-4.56,17.78c-1.3,5.08,3.38,9.66,8.43,8.25
					l17.68-4.94C210.97,177.77,212.6,171.42,208.85,167.75z"/>
			</g>
			<path class="st0" d="M167.5,117.31v-4.74c0-5.82,2.01-15.41,5.62-19.61l2.03-2.37c1.21-1.41,3.52-0.55,3.52,1.3v16.87
				c0,1.93-0.65,3.8-1.84,5.32l-3.97,5.06C171.1,121.4,167.5,120.16,167.5,117.31z M223.5,357.29c0-7.25-6.32-7.67-9.45-1.79
				c-5.29,9.94-9.4,17.76-20.49,32.83c-5.08,6.9-11.01,13.72-16.43,19.51c-2.98,3.19-0.7,8.4,3.66,8.4h35.89
				c3.76,0,6.81-3.05,6.81-6.81L223.5,357.29L223.5,357.29z M269.5,174.17c4.05,5.06,6.47,10.12,7.83,13.63
				c0.42,1.08,2.01,0.86,2.11-0.3c0.14-1.58,0.74-9.13-2.76-25.46c-1.75-8.18-3.41-12.3-4.01-14.02c-0.85-2.43-3.65-4.5-6.23-4.57
				c-2.71-0.07-5.83,0.14-12.02,1.96c-4.55,1.33-8.03,3.57-10.49,5.78c-2.3,2.06-1.49,5.8,1.44,6.79
				C255.06,161.24,263.34,166.47,269.5,174.17z M416.25,50c0-27.61-22.39-50-50-50H50C22.39,0,0,22.39,0,50v316.25
				c0,27.61,22.39,50,50,50h26.36c3.94,0,7.06-3.34,6.79-7.27c-2.34-34.1-6.12-90.88-6.82-113.47c-2-65,4-86,26.5-118
				c8.92-12.68,19.17-27.72,30.82-41.47c1.23-1.46,3.33-1.81,5.01-0.89c2.54,1.4,4.3,2.56,5.83,3.69c2.63,1.93,6.34,0.02,6.34-3.24
				v-22.4c0-9.6,3.11-18.96,8.92-26.61c2.21-2.91,6.01-6.95,8.58-9.08c4.37-3.62,8.04-6,13.54-9.01c5.83-3.19,12.96,1.01,12.96,7.66
				v12.81c0,3.48,2.62,6.39,6.08,6.77c11.36,1.24,36.66,5.08,58.92,15.27c29.5,13.5,35,26.5,37.5,31.5s8.5,18,21.5,29
				s18,20.5,13.5,32.5c-0.59,1.57-1.44,3.48-2.48,5.61c-0.71,1.45-2.77,1.53-3.54,0.12c-0.74-1.36-1.7-2.73-2.87-3.6
				c-2.31-1.71-4.52-3.24-6.07-4.79c-0.8-0.8-2.09,0.18-1.55,1.18c1.84,3.4,4.29,5.58,4.83,12.99c0.55,7.51-1.3,12.48-3.57,16.42
				c-6.06,9.49-12.31,18.02-15.75,20.58c-6.82,5.08-18,6.5-28.5-1c-7.71-5.51-10.79-9.64-13.57-11.96c-2-1.67-3.58-3.08-6.5-3.67
				c-3.78-0.76-13.27-0.94-22.26-1.04c-7.29-0.08-12.19,0.02-16.32,0.37c-4.19,0.35-7.31,2.98-9.5,6.17l-11.5,16.87
				c-3.88,5.75-0.12,10.75,7,9c6.47-1.59,15.05-3.37,24.66-4.92c13.39-2.16,25.99-3.11,33.72-3.53c4.89-0.26,10.42,1.07,13.12,5.05
				l134.17,207.43c3.25,5.75,10.4,4.08,10.4-2.92L416.25,50L416.25,50z"/>
		</g>
	</g>
</g>
</svg>
