<?xml version="1.0" encoding="utf-8"?>
<!-- Generator: Adobe Illustrator 23.0.6, SVG Export Plug-In . SVG Version: 6.00 Build 0)  -->
<svg version="1.1" id="Layer_1" xmlns="http://www.w3.org/2000/svg" xmlns:xlink="http://www.w3.org/1999/xlink" x="0px" y="0px"
	 viewBox="0 0 416.2 474.8" style="enable-background:new 0 0 416.2 474.8;" xml:space="preserve">
<style type="text/css">
	.st0{fill:#F5CE6E;}
</style>
<g id="live_lingua_logo_copy_2">
	<g>
		<g>
			<g>
				<path class="st0" d="M161.4,215.6l-31.5-3.3c-5.2-0.6-7.9-6.5-4.8-10.8l18.7-25.6c3.1-4.2,9.6-3.6,11.7,1.2l12.9,29
					C170.5,210.9,166.6,216.2,161.4,215.6z"/>
				<path class="st0" d="M141.7,239.1l-15.9-9.1c-4.6-2.6-10.2,0.7-10.2,6l0.1,18.4c0,5.2,5.7,8.5,10.2,5.8l15.8-9.3
					C146.3,248.3,146.3,241.7,141.7,239.1z"/>
				<path class="st0" d="M208.9,167.8l-13.1-12.8c-3.8-3.7-10.1-1.9-11.4,3.2l-4.6,17.8c-1.3,5.1,3.4,9.7,8.4,8.2l17.7-4.9
					C211,177.8,212.6,171.4,208.9,167.8z"/>
			</g>
			<path class="st0" d="M167.5,117.3v-4.7c0-5.8,2-15.4,5.6-19.6l2-2.4c1.2-1.4,3.5-0.6,3.5,1.3v16.9c0,1.9-0.6,3.8-1.8,5.3l-4,5.1
				C171.1,121.4,167.5,120.2,167.5,117.3z M223.5,357.3c0-7.2-6.3-7.7-9.4-1.8c-5.3,9.9-9.4,17.8-20.5,32.8
				c-5.1,6.9-11,13.7-16.4,19.5c-3,3.2-0.7,8.4,3.7,8.4h35.9c3.8,0,6.8-3,6.8-6.8L223.5,357.3L223.5,357.3z M269.5,174.2
				c4,5.1,6.5,10.1,7.8,13.6c0.4,1.1,2,0.9,2.1-0.3c0.1-1.6,0.7-9.1-2.8-25.5c-1.8-8.2-3.4-12.3-4-14c-0.9-2.4-3.6-4.5-6.2-4.6
				c-2.7-0.1-5.8,0.1-12,2c-4.6,1.3-8,3.6-10.5,5.8c-2.3,2.1-1.5,5.8,1.4,6.8C255.1,161.2,263.3,166.5,269.5,174.2z M416.2,50
				c0-27.6-22.4-50-50-50H50C22.4,0,0,22.4,0,50v316.2c0,27.6,22.4,50,50,50h26.4c3.9,0,7.1-3.3,6.8-7.3
				c-2.3-34.1-6.1-90.9-6.8-113.5c-2-65,4-86,26.5-118c8.9-12.7,19.2-27.7,30.8-41.5c1.2-1.5,3.3-1.8,5-0.9c2.5,1.4,4.3,2.6,5.8,3.7
				c2.6,1.9,6.3,0,6.3-3.2v-22.4c0-9.6,3.1-19,8.9-26.6c2.2-2.9,6-6.9,8.6-9.1c4.4-3.6,8-6,13.5-9c5.8-3.2,13,1,13,7.7V89
				c0,3.5,2.6,6.4,6.1,6.8c11.4,1.2,36.7,5.1,58.9,15.3c29.5,13.5,35,26.5,37.5,31.5s8.5,18,21.5,29s18,20.5,13.5,32.5
				c-0.6,1.6-1.4,3.5-2.5,5.6c-0.7,1.4-2.8,1.5-3.5,0.1c-0.7-1.4-1.7-2.7-2.9-3.6c-2.3-1.7-4.5-3.2-6.1-4.8
				c-0.8-0.8-2.1,0.2-1.5,1.2c1.8,3.4,4.3,5.6,4.8,13c0.5,7.5-1.3,12.5-3.6,16.4c-6.1,9.5-12.3,18-15.8,20.6c-6.8,5.1-18,6.5-28.5-1
				c-7.7-5.5-10.8-9.6-13.6-12c-2-1.7-3.6-3.1-6.5-3.7c-3.8-0.8-13.3-0.9-22.3-1c-7.3-0.1-12.2,0-16.3,0.4c-4.2,0.4-7.3,3-9.5,6.2
				l-11.5,16.9c-3.9,5.8-0.1,10.8,7,9c6.5-1.6,15.1-3.4,24.7-4.9c13.4-2.2,26-3.1,33.7-3.5c4.9-0.3,10.4,1.1,13.1,5l134.2,207.4
				c3.2,5.8,10.4,4.1,10.4-2.9L416.2,50L416.2,50z"/>
		</g>
	</g>
</g>
</svg>
