<?xml version="1.0" encoding="utf-8"?>
<!-- Generator: Adobe Illustrator 23.0.6, SVG Export Plug-In . SVG Version: 6.00 Build 0)  -->
<svg version="1.1" xmlns="http://www.w3.org/2000/svg" xmlns:xlink="http://www.w3.org/1999/xlink" x="0px" y="0px"
	 viewBox="0 0 1706.71 474.77" style="enable-background:new 0 0 1706.71 474.77;" xml:space="preserve">
<style type="text/css">
	.st0{fill:#303030;}
</style>
<g id="live_lingua_logo">
</g>
<g id="live_lingua_logo_copy">
</g>
<g id="live_lingua_logo_copy_3">
</g>
<g id="live_lingua_logo_copy_2">
	<g>
		<g>
			<g>
				<path class="st0" d="M161.41,215.62l-31.54-3.34c-5.21-0.55-7.87-6.54-4.79-10.78l18.66-25.65c3.08-4.24,9.6-3.55,11.73,1.24
					l12.88,28.98C170.47,210.87,166.62,216.17,161.41,215.62z"/>
				<path class="st0" d="M141.73,239.11l-15.95-9.09c-4.56-2.59-10.21,0.72-10.18,5.96l0.11,18.36c0.03,5.24,5.73,8.48,10.25,5.84
					l15.85-9.27C146.33,248.26,146.29,241.71,141.73,239.11z"/>
				<path class="st0" d="M208.85,167.75l-13.12-12.84c-3.75-3.67-10.06-1.9-11.36,3.17l-4.56,17.78c-1.3,5.08,3.38,9.66,8.43,8.25
					l17.68-4.94C210.97,177.77,212.6,171.42,208.85,167.75z"/>
			</g>
			<path class="st0" d="M167.5,117.31v-4.74c0-5.82,2.01-15.41,5.62-19.61l2.03-2.37c1.21-1.41,3.52-0.55,3.52,1.3v16.87
				c0,1.93-0.65,3.8-1.84,5.32l-3.97,5.06C171.1,121.4,167.5,120.16,167.5,117.31z M223.5,357.29c0-7.25-6.32-7.67-9.45-1.79
				c-5.29,9.94-9.4,17.76-20.49,32.83c-5.08,6.9-11.01,13.72-16.43,19.51c-2.98,3.19-0.7,8.4,3.66,8.4l35.89,0
				c3.76,0,6.81-3.05,6.81-6.81V357.29z M269.5,174.17c4.05,5.06,6.47,10.12,7.83,13.63c0.42,1.08,2.01,0.86,2.11-0.3
				c0.14-1.58,0.74-9.13-2.76-25.46c-1.75-8.18-3.41-12.3-4.01-14.02c-0.85-2.43-3.65-4.5-6.23-4.57
				c-2.71-0.07-5.83,0.14-12.02,1.96c-4.55,1.33-8.03,3.57-10.49,5.78c-2.3,2.06-1.49,5.8,1.44,6.79
				C255.06,161.24,263.34,166.47,269.5,174.17z M416.25,50c0-27.61-22.39-50-50-50H50C22.39,0,0,22.39,0,50v316.25
				c0,27.61,22.39,50,50,50l26.36,0c3.94,0,7.06-3.34,6.79-7.27c-2.34-34.1-6.12-90.88-6.82-113.47c-2-65,4-86,26.5-118
				c8.92-12.68,19.17-27.72,30.82-41.47c1.23-1.46,3.33-1.81,5.01-0.89c2.54,1.4,4.3,2.56,5.83,3.69c2.63,1.93,6.34,0.02,6.34-3.24
				l0-22.4c0-9.6,3.11-18.96,8.92-26.61c2.21-2.91,6.01-6.95,8.58-9.08c4.37-3.62,8.04-6,13.54-9.01
				c5.83-3.19,12.96,1.01,12.96,7.66l0,12.81c0,3.48,2.62,6.39,6.08,6.77c11.36,1.24,36.66,5.08,58.92,15.27
				c29.5,13.5,35,26.5,37.5,31.5s8.5,18,21.5,29s18,20.5,13.5,32.5c-0.59,1.57-1.44,3.48-2.48,5.61c-0.71,1.45-2.77,1.53-3.54,0.12
				c-0.74-1.36-1.7-2.73-2.87-3.6c-2.31-1.71-4.52-3.24-6.07-4.79c-0.8-0.8-2.09,0.18-1.55,1.18c1.84,3.4,4.29,5.58,4.83,12.99
				c0.55,7.51-1.3,12.48-3.57,16.42c-6.06,9.49-12.31,18.02-15.75,20.58c-6.82,5.08-18,6.5-28.5-1
				c-7.71-5.51-10.79-9.64-13.57-11.96c-2-1.67-3.58-3.08-6.5-3.67c-3.78-0.76-13.27-0.94-22.26-1.04
				c-7.29-0.08-12.19,0.02-16.32,0.37c-4.19,0.35-7.31,2.98-9.5,6.17l-11.5,16.87c-3.88,5.75-0.12,10.75,7,9
				c6.47-1.59,15.05-3.37,24.66-4.92c13.39-2.16,25.99-3.11,33.72-3.53c4.89-0.26,10.42,1.07,13.12,5.05l134.17,207.43
				c3.25,5.75,10.4,4.08,10.4-2.92V50z"/>
		</g>
		<g>
			<path class="st0" d="M575.68,275.3h50.39c4.85,0,7.27,2.41,7.27,7.23v23.21c0,4.82-2.43,7.22-7.27,7.22h-84.94
				c-4.85,0-7.27-2.42-7.27-7.27V136.85c0-4.84,2.42-7.27,7.27-7.27h27.27c4.85,0,7.27,2.43,7.27,7.29V275.3z"/>
			<path class="st0" d="M688.22,152.69c0,4.5-2.25,6.75-6.75,6.75h-26.76c-4.33,0-6.49-2.25-6.49-6.75v-15.85
				c0-4.67,2.16-7.01,6.49-7.01h26.76c4.5,0,6.75,2.34,6.75,7.01V152.69z M687.96,306.21c0,4.5-2.25,6.75-6.75,6.75h-25.98
				c-4.51,0-6.75-2.25-6.75-6.75V179.19c0-4.68,2.25-7.01,6.75-7.01h25.98c4.5,0,6.75,2.34,6.75,7.01V306.21z"/>
			<path class="st0" d="M747.15,312.96c-4.33,0-7.19-2.08-8.57-6.23l-35.85-126.76c-0.69-2.42-0.61-4.33,0.26-5.71
				c0.86-1.39,2.51-2.08,4.94-2.08h27.01c2.42,0,4.24,0.56,5.45,1.69c1.21,1.13,2.08,2.82,2.6,5.07l13.25,61.56l5.71,29.61h0.78
				l5.97-29.61l13.25-61.56c0.86-4.5,3.46-6.75,7.79-6.75h27.27c2.42,0,4.07,0.69,4.94,2.08c0.86,1.39,0.95,3.29,0.26,5.71
				l-36.11,126.76c-1.21,4.16-4.07,6.23-8.57,6.23H747.15z"/>
			<path class="st0" d="M896.06,285.43c5.54,0,10.61-0.52,15.2-1.56c4.59-1.04,8.79-2.34,12.6-3.9c4.85-1.73,7.7-0.17,8.57,4.68
				l2.86,15.33c0.35,2.43,0.04,4.25-0.91,5.46c-0.95,1.21-2.38,2.25-4.29,3.12c-4.51,1.91-9.96,3.55-16.36,4.93
				c-6.41,1.38-13.42,2.08-21.04,2.08c-22.69,0-39.57-5.89-50.65-17.66c-11.08-11.77-16.62-30.3-16.62-55.59
				c0-24.76,5.07-43.07,15.2-54.94c10.13-11.86,24.81-17.79,44.03-17.79c19.39,0,33.55,5.8,42.47,17.4
				c8.92,11.6,13.38,27.97,13.38,49.09v14.29c0,4.85-2.51,7.27-7.53,7.27h-68.84C866.19,276.17,876.84,285.43,896.06,285.43z
				 M884.89,198.93c-6.93,0-12.08,2.56-15.46,7.66c-3.38,5.11-5.41,13.81-6.1,26.1h41.04v-2.6c0-10.04-1.52-17.75-4.55-23.12
				C896.79,201.62,891.81,198.93,884.89,198.93z"/>
			<path class="st0" d="M1066.68,275.3h50.39c4.85,0,7.27,2.41,7.27,7.23v23.21c0,4.82-2.43,7.22-7.27,7.22h-84.94
				c-4.85,0-7.27-2.42-7.27-7.27V136.85c0-4.84,2.42-7.27,7.27-7.27h27.27c4.85,0,7.27,2.43,7.27,7.29V275.3z"/>
			<path class="st0" d="M1180.22,152.69c0,4.5-2.25,6.75-6.75,6.75h-26.76c-4.33,0-6.49-2.25-6.49-6.75v-15.85
				c0-4.67,2.16-7.01,6.49-7.01h26.76c4.5,0,6.75,2.34,6.75,7.01V152.69z M1179.96,306.21c0,4.5-2.25,6.75-6.75,6.75h-25.98
				c-4.51,0-6.75-2.25-6.75-6.75V179.19c0-4.68,2.25-7.01,6.75-7.01h25.98c4.5,0,6.75,2.34,6.75,7.01V306.21z"/>
			<path class="st0" d="M1315.5,306.21c0,4.5-2.27,6.75-6.8,6.75h-25.89c-4.53,0-6.8-2.25-6.8-6.75v-80.52
				c0-6.75-1.08-11.95-3.25-15.59c-2.17-3.64-6.19-5.45-12.08-5.45c-6.75,0-11.69,2.3-14.81,6.88c-3.12,4.59-4.68,11.04-4.68,19.35
				v75.33c0,4.5-2.34,6.75-7.01,6.75h-25.72c-4.51,0-6.75-2.25-6.75-6.75V179.19c0-4.68,2.25-7.01,6.75-7.01h23.12
				c4.5,0,7.01,1.91,7.53,5.71l1.3,9.35c2.77-4.33,7.01-8.35,12.73-12.08c5.71-3.72,13.25-5.59,22.6-5.59
				c14.12,0,24.27,4.24,30.46,12.73c6.19,8.49,9.28,20.18,9.28,35.07V306.21z"/>
			<path class="st0" d="M1447.26,290.88c0,18.18-5.11,31.6-15.33,40.26c-10.22,8.66-25.37,12.99-45.46,12.99
				c-7.79,0-15.46-0.52-22.99-1.56c-7.53-1.04-13.55-2.6-18.05-4.68c-2.08-0.87-3.55-1.86-4.42-2.99c-0.87-1.13-1.13-2.9-0.78-5.33
				l2.6-16.36c0.86-4.5,3.72-6.06,8.57-4.68c3.46,1.21,7.92,2.34,13.38,3.38c5.46,1.04,11.21,1.56,17.27,1.56
				c18.53,0,27.79-7.96,27.79-23.9v-8.83c-2.77,5.02-6.88,8.88-12.34,11.56c-5.45,2.69-12.08,4.03-19.87,4.03
				c-14.72,0-26.15-4.89-34.29-14.68c-8.14-9.78-12.21-25.85-12.21-48.18c0-22.69,4.16-38.96,12.47-48.83s19.57-14.81,33.77-14.81
				c7.96,0,14.76,1.69,20.39,5.06c5.63,3.38,9.83,7.4,12.6,12.08l0.78-9.09c0.35-3.81,2.86-5.71,7.53-5.71h21.82
				c4.5,0,6.75,2.34,6.75,7.01V290.88z M1409.08,233.22c0-22.16-6.58-33.25-19.74-33.25c-6.58,0-11.34,2.69-14.29,8.05
				c-2.95,5.37-4.42,13.86-4.42,25.46c0,11.6,1.47,20.09,4.42,25.46c2.94,5.37,7.7,8.05,14.29,8.05
				C1402.5,266.99,1409.08,255.73,1409.08,233.22z"/>
			<path class="st0" d="M1467.21,179.19c0-4.68,2.27-7.01,6.8-7.01h25.89c4.53,0,6.8,2.34,6.8,7.01v80.52
				c0,6.58,1.03,11.78,3.09,15.58c2.06,3.81,6.01,5.72,11.86,5.72c6.36,0,11.12-2.25,14.31-6.75c3.18-4.5,4.77-10.74,4.77-18.7
				v-76.37c0-4.68,2.26-7.01,6.8-7.01h25.89c4.53,0,6.8,2.34,6.8,7.01v127.02c0,4.5-2.27,6.75-6.8,6.75h-23.28
				c-4.54,0-7.07-1.9-7.58-5.72l-1.04-9.35c-2.75,4.33-6.75,8.36-11.99,12.08c-5.25,3.72-12.42,5.59-21.52,5.59
				c-13.95,0-24.23-3.77-30.85-11.3c-6.62-7.53-9.93-19-9.93-34.42V179.19z"/>
			<path class="st0" d="M1706.71,306.21c0,4.5-2.25,6.75-6.75,6.75h-20.78c-4.33,0-6.75-1.9-7.27-5.72l-1.04-9.09
				c-2.77,3.99-7.01,7.75-12.73,11.3c-5.72,3.55-13.77,5.32-24.16,5.32c-11.43,0-20.74-3.46-27.92-10.39
				c-7.19-6.92-10.78-17.4-10.78-31.43c0-9.87,1.73-17.79,5.19-23.77c3.46-5.97,8.44-10.65,14.94-14.03
				c6.49-3.38,14.29-5.67,23.38-6.88c9.09-1.21,19.18-1.9,30.26-2.08v-7.53c0-6.06-1.69-10.39-5.07-12.99
				c-3.38-2.6-8.79-3.9-16.23-3.9c-6.58,0-12.56,0.65-17.92,1.95c-5.37,1.3-10.05,2.64-14.03,4.03c-4.85,1.39-7.62-0.17-8.31-4.68
				l-2.86-17.66c-0.69-3.98,0.86-6.66,4.68-8.05c5.19-2.08,11.82-3.85,19.87-5.32c8.05-1.47,16.15-2.21,24.29-2.21
				c18.87,0,32.47,3.68,40.78,11.04c8.31,7.36,12.47,18.83,12.47,34.42V306.21z M1669.04,248.8c-5.89,0.17-11.08,0.56-15.58,1.17
				c-4.51,0.61-8.27,1.69-11.3,3.25c-3.03,1.56-5.32,3.68-6.88,6.36c-1.56,2.69-2.34,6.28-2.34,10.78c0,5.02,1.21,9.09,3.64,12.21
				c2.42,3.12,6.14,4.68,11.17,4.68c7.62,0,13.07-2.34,16.37-7.01c3.29-4.68,4.93-10.56,4.93-17.66V248.8z"/>
		</g>
	</g>
</g>
</svg>
